<svg width="772" height="160" viewBox="0 0 772 160" fill="none" xmlns="http://www.w3.org/2000/svg">
    <path d="M412.074 52.32H450.682C453.93 52.32 456.756 53.5829 459.162 56.1087C461.567 58.5142 462.77 61.3407 462.77 64.5882C462.77 82.6296 456.515 97.9046 444.007 110.413C431.498 122.922 416.223 129.176 398.182 129.176C380.14 129.176 364.865 122.922 352.357 110.413C339.848 97.9046 333.594 82.6296 333.594 64.5882C333.594 46.5468 339.848 31.2717 352.357 18.7631C364.865 6.25435 380.14 0 398.182 0C417.306 0 433.362 7.21656 446.352 21.6497C448.637 24.1755 449.78 26.8215 449.78 29.5879C449.78 32.9556 448.517 35.9024 445.991 38.4282C443.466 40.8337 440.519 42.0364 437.151 42.0364C433.904 42.0364 430.957 40.5931 428.311 37.7065C420.373 28.8061 410.33 24.3559 398.182 24.3559C386.755 24.3559 377.193 28.2047 369.496 35.9024C361.798 43.6 357.949 53.162 357.949 64.5882C357.949 75.8941 361.798 85.456 369.496 93.274C377.314 100.972 386.876 104.82 398.182 104.82C407.082 104.82 415.02 102.235 421.996 97.0627C429.093 91.8908 433.964 85.0952 436.61 76.6759H412.074C408.465 76.6759 405.518 75.5333 403.233 73.248C401.068 70.9628 399.986 68.016 399.986 64.4078C399.986 60.7995 401.068 57.9129 403.233 55.7479C405.518 53.4627 408.465 52.32 412.074 52.32Z" fill="#F6EEE3"/>
    <path d="M636.064 60.7724L612.971 83.3241C610.325 85.8499 607.499 87.1128 604.492 87.1128C601.124 87.1128 598.177 85.8499 595.651 83.3241C593.246 80.7983 592.043 77.8515 592.043 74.4838C592.043 71.4769 593.366 68.6504 596.012 66.0044L609.002 53.1949C607.438 52.9544 605.875 52.8341 604.311 52.8341C598.297 52.8341 593.186 54.939 588.976 59.1486C584.766 63.3583 582.662 68.47 582.662 74.4838C582.662 80.4976 584.766 85.6695 588.976 89.9994C593.186 94.2091 598.297 96.3139 604.311 96.3139H620.368C623.976 96.3139 626.863 97.4565 629.028 99.7418C631.313 101.907 632.456 104.793 632.456 108.402C632.456 112.01 631.313 114.957 629.028 117.242C626.863 119.527 623.976 120.67 620.368 120.67H604.311C591.321 120.67 580.376 116.22 571.476 107.319C562.696 98.4187 558.306 87.4736 558.306 74.4838C558.306 61.494 562.696 50.609 571.476 41.8288C580.376 32.9284 591.321 28.4782 604.311 28.4782C617.421 28.4782 628.547 33.169 637.688 42.5505C640.093 45.0763 641.296 47.8426 641.296 50.8495C641.296 54.8186 639.552 58.1263 636.064 60.7724Z" fill="#F6EEE3"/>
    <path d="M691.463 56.262C689.418 58.3067 688.396 60.8325 688.396 63.8394L688.215 84.7674C688.095 94.63 684.607 102.989 677.751 109.845C671.016 116.701 662.717 120.129 652.854 120.129C649.246 120.129 646.299 119.046 644.014 116.881C641.849 114.596 640.766 111.649 640.766 108.041C640.766 104.433 641.849 101.486 644.014 99.2005C646.299 96.9153 649.246 95.7727 652.854 95.7727C655.981 95.7727 658.567 94.7503 660.612 92.7056C662.777 90.5407 663.859 87.8946 663.859 84.7674C663.859 83.6849 663.859 82.4822 663.859 81.1591C663.98 76.3481 664.04 73.8824 664.04 73.7622V63.8394C664.04 53.8565 667.408 45.4973 674.143 38.7618C680.999 31.9061 689.418 28.4782 699.401 28.4782C703.009 28.4782 705.956 29.6208 708.241 31.9061C710.527 34.071 711.669 36.9577 711.669 40.5659C711.669 44.054 710.587 46.8804 708.422 49.0454C706.257 51.2104 703.37 52.4733 699.762 52.8341C696.274 53.0746 693.508 54.2173 691.463 56.262Z" fill="#F6EEE3"/>
    <path d="M751.773 56.262C749.729 58.3067 748.706 60.8325 748.706 63.8394L748.526 84.7674C748.406 94.63 744.917 102.989 738.062 109.845C731.326 116.701 723.027 120.129 713.165 120.129C709.556 120.129 706.61 119.046 704.324 116.881C702.159 114.596 701.077 111.649 701.077 108.041C701.077 104.433 702.159 101.486 704.324 99.2005C706.61 96.9153 709.556 95.7727 713.165 95.7727C716.292 95.7727 718.878 94.7503 720.922 92.7056C723.087 90.5407 724.17 87.8946 724.17 84.7674C724.17 83.6849 724.17 82.4822 724.17 81.1591C724.29 76.3481 724.35 73.8824 724.35 73.7622V63.8394C724.35 53.8565 727.718 45.4973 734.453 38.7618C741.309 31.9061 749.729 28.4782 759.711 28.4782C763.32 28.4782 766.266 29.6208 768.552 31.9061C770.837 34.071 771.98 36.9577 771.98 40.5659C771.98 44.054 770.897 46.8804 768.732 49.0454C766.567 51.2104 763.681 52.4733 760.072 52.8341C756.584 53.0746 753.818 54.2173 751.773 56.262Z" fill="#F6EEE3"/>
    <path fill-rule="evenodd" clip-rule="evenodd" d="M494.921 81.3395V40.9268C494.921 37.3185 493.779 34.3717 491.493 32.0865C489.208 29.8013 486.261 28.6586 482.653 28.6586C479.045 28.6586 476.098 29.8013 473.813 32.0865C471.648 34.3717 470.565 37.3185 470.565 40.9268V43.443C470.779 43.6495 470.99 43.8594 471.198 44.0725L471.7 44.5861C476.821 49.9448 479.792 56.8423 479.792 64.5878C479.792 76.1433 477.679 86.9519 473.479 96.8715C475.342 101.388 478.1 105.472 481.751 109.123C489.208 116.58 498.469 120.309 509.535 120.309C520.48 120.309 529.681 116.58 537.138 109.123C544.595 101.546 548.324 92.2847 548.324 81.3395V40.5659C548.324 36.9577 547.181 34.071 544.896 31.9061C542.731 29.6208 539.844 28.4782 536.236 28.4782C532.628 28.4782 529.681 29.6208 527.396 31.9061C525.111 34.071 523.968 36.9577 523.968 40.5659V81.3395C523.968 85.4289 522.585 88.9169 519.818 91.8035C517.052 94.5699 513.624 95.9531 509.535 95.9531C505.445 95.9531 501.957 94.5699 499.071 91.8035C496.305 88.9169 494.921 85.4289 494.921 81.3395Z" fill="#F6EEE3"/>
    <path d="M52.5004 76.6759C52.5004 80.2842 51.3578 83.2309 49.0726 85.5162C46.9076 87.6812 44.021 88.7636 40.4127 88.7636C36.8044 88.7636 33.8577 87.6812 31.5724 85.5162C29.2872 83.2309 28.1446 80.2842 28.1446 76.6759V26.8545H12.2682C8.65988 26.8545 5.7131 25.7119 3.42786 23.4267C1.14261 21.1414 0 18.1947 0 14.5864C0 10.9781 1.14261 8.09149 3.42786 5.92652C5.7131 3.64128 8.65988 2.49866 12.2682 2.49866H69.2789C72.8872 2.49866 75.834 3.64128 78.1192 5.92652C80.4045 8.09149 81.5471 10.9781 81.5471 14.5864C81.5471 18.1947 80.4045 21.1414 78.1192 23.4267C75.834 25.7119 72.8872 26.8545 69.2789 26.8545H52.5004V76.6759Z" fill="#F6EEE3"/>
    <path d="M245.296 160H244.574C233.509 160 224.248 156.271 216.791 148.814C209.334 141.357 205.605 132.096 205.605 121.031V112.551L205.425 67.2673C205.425 63.2981 203.981 59.9304 201.095 57.1641C198.328 54.2775 194.961 52.8341 190.992 52.8341C186.902 52.8341 183.414 54.2173 180.528 56.9837C177.761 59.75 176.378 63.1779 176.378 67.2673V108.221C176.378 111.829 175.235 114.776 172.95 117.061C170.665 119.226 167.718 120.309 164.11 120.309C160.502 120.309 157.555 119.226 155.27 117.061C153.105 114.776 152.022 111.829 152.022 108.221V67.2673C152.022 56.3221 155.751 47.121 163.208 39.6639C170.785 32.2068 180.046 28.4782 190.992 28.4782C201.937 28.4782 211.138 32.2068 218.595 39.6639C226.172 47.121 229.961 56.3221 229.961 67.2673V121.031C229.961 125.12 231.344 128.548 234.11 131.314C236.997 134.201 240.485 135.644 244.574 135.644H245.296C248.904 135.644 251.851 136.787 254.136 139.072C256.422 141.357 257.564 144.304 257.564 147.912C257.564 151.521 256.422 154.407 254.136 156.572C251.851 158.857 248.904 160 245.296 160Z" fill="#F6EEE3"/>
    <path d="M317.521 60.7724L294.428 83.3241C291.782 85.8499 288.955 87.1128 285.948 87.1128C282.581 87.1128 279.634 85.8499 277.108 83.3241C274.703 80.7983 273.5 77.8515 273.5 74.4838C273.5 71.4769 274.823 68.6504 277.469 66.0044L290.459 53.1949C288.895 52.9544 287.332 52.8341 285.768 52.8341C279.754 52.8341 274.642 54.939 270.433 59.1486C266.223 63.3583 264.118 68.47 264.118 74.4838C264.118 80.4976 266.223 85.6695 270.433 89.9994C274.642 94.2091 279.754 96.3139 285.768 96.3139H301.825C305.433 96.3139 308.32 97.4565 310.485 99.7418C312.77 101.907 313.913 104.793 313.913 108.402C313.913 112.01 312.77 114.957 310.485 117.242C308.32 119.527 305.433 120.67 301.825 120.67H285.768C272.778 120.67 261.833 116.22 252.933 107.319C244.153 98.4187 239.762 87.4736 239.762 74.4838C239.762 61.494 244.153 50.609 252.933 41.8288C261.833 32.9284 272.778 28.4782 285.768 28.4782C298.878 28.4782 310.004 33.169 319.145 42.5505C321.55 45.0763 322.753 47.8426 322.753 50.8495C322.753 54.8186 321.009 58.1263 317.521 60.7724Z" fill="#F6EEE3"/>
    <path fill-rule="evenodd" clip-rule="evenodd" d="M88.6376 81.3395V40.9268C88.6376 37.3185 87.495 34.3717 85.2097 32.0865C85.1395 32.0162 85.0686 31.947 84.9971 31.8789C79.6026 37.0974 72.7979 39.39 65.8508 39.39H64.3508C64.3048 39.8882 64.2817 40.4004 64.2817 40.9268V81.3395C64.2817 92.4049 68.0103 101.666 75.4674 109.123C82.9245 116.58 92.1858 120.309 103.251 120.309C114.196 120.309 123.397 116.58 130.855 109.123C138.312 101.546 142.04 92.2847 142.04 81.3395V40.5659C142.04 36.9577 140.898 34.071 138.612 31.9061C136.447 29.6208 133.561 28.4782 129.952 28.4782C126.344 28.4782 123.397 29.6208 121.112 31.9061C118.827 34.071 117.684 36.9577 117.684 40.5659V81.3395C117.684 85.4289 116.301 88.9169 113.535 91.8035C110.768 94.5699 107.341 95.9531 103.251 95.9531C99.1618 95.9531 95.6738 94.5699 92.7871 91.8035C90.0208 88.9169 88.6376 85.4289 88.6376 81.3395Z" fill="#F6EEE3"/>
</svg>
