<svg width="895" height="90" viewBox="0 0 895 90" fill="none" xmlns="http://www.w3.org/2000/svg">
<path d="M611.944 0L611.816 44.8C611.816 51.0293 610.664 56.8747 608.36 62.336C606.056 67.712 602.856 72.448 598.76 76.544C594.664 80.64 589.885 83.84 584.424 86.144C579.048 88.448 573.288 89.6 567.144 89.6H557.672C551.528 89.6 545.725 88.448 540.264 86.144C534.888 83.84 530.152 80.64 526.056 76.544C521.96 72.3627 518.76 67.584 516.456 62.208C514.152 56.7467 513 50.944 513 44.8V0H525.8V44.8C525.8 50.688 527.208 56.064 530.024 60.928C532.925 65.7067 536.808 69.5467 541.672 72.448C546.536 75.3493 551.869 76.8 557.672 76.8H567.144C573.032 76.8 578.365 75.3493 583.144 72.448C588.008 69.5467 591.848 65.7067 594.664 60.928C597.565 56.064 599.016 50.688 599.016 44.8V0H611.944Z" fill="white"/>
<path d="M507.944 89.6H450.216C443.987 89.6 438.355 88.448 433.32 86.144C428.285 83.84 423.933 80.64 420.264 76.544C416.68 72.448 413.907 67.712 411.944 62.336C409.981 56.8747 409 51.0293 409 44.8C409 38.656 409.981 32.896 411.944 27.52C413.907 22.0587 416.68 17.28 420.264 13.184C423.933 9.00267 428.285 5.76 433.32 3.456C438.355 1.152 443.987 0 450.216 0H507.944V12.8H450.216C444.328 12.8 439.251 14.2507 434.984 17.152C430.803 19.968 427.56 23.808 425.256 28.672C422.952 33.536 421.8 38.912 421.8 44.8C421.8 50.688 422.952 56.064 425.256 60.928C427.56 65.7067 430.803 69.5467 434.984 72.448C439.251 75.3493 444.328 76.8 450.216 76.8H495.144V51.2H440.872V38.4H507.944V89.6Z" fill="white"/>
<path d="M408.584 89.6H315.912V0H408.584V12.8H328.712V76.8H408.584V89.6ZM397.704 51.2H345.112V38.4H397.704V51.2Z" fill="white"/>
<path d="M219.607 89.6H206.807V0H213.207C219.436 0 226.178 1.19467 233.431 3.584C240.77 5.97333 248.108 9.344 255.447 13.696C262.786 18.048 269.698 23.2533 276.183 29.312C282.754 35.2853 288.386 41.9413 293.079 49.28V0H305.879V89.6H293.079C293.079 81.7493 291.458 74.24 288.215 67.072C285.058 59.8187 280.834 53.1627 275.543 47.104C270.252 40.96 264.364 35.5413 257.879 30.848C251.479 26.0693 244.951 22.1867 238.295 19.2C231.639 16.128 225.41 14.1653 219.607 13.312V89.6Z" fill="white"/>
<path d="M199.952 0L199.824 44.8C199.824 51.0293 198.672 56.8747 196.368 62.336C194.064 67.712 190.864 72.448 186.768 76.544C182.672 80.64 177.893 83.84 172.432 86.144C167.056 88.448 161.296 89.6 155.152 89.6H145.68C139.536 89.6 133.733 88.448 128.272 86.144C122.896 83.84 118.16 80.64 114.064 76.544C109.968 72.3627 106.768 67.584 104.464 62.208C102.16 56.7467 101.008 50.944 101.008 44.8V12.8H58.112V89.6H45.312V12.8H0V0H101.008H113.808V44.8C113.808 50.688 115.216 56.064 118.032 60.928C120.933 65.7067 124.816 69.5467 129.68 72.448C134.544 75.3493 139.877 76.8 145.68 76.8H155.152C161.04 76.8 166.373 75.3493 171.152 72.448C176.016 69.5467 179.856 65.7067 182.672 60.928C185.573 56.064 187.024 50.688 187.024 44.8V0H199.952Z" fill="white"/>
<path d="M894.424 64C894.424 68.6933 893.272 73.0027 890.968 76.928C888.664 80.768 885.592 83.84 881.752 86.144C877.912 88.448 873.603 89.6 868.824 89.6H818V76.8H868.824C872.408 76.8 875.437 75.5627 877.912 73.088C880.387 70.528 881.624 67.4987 881.624 64C881.624 60.5013 880.387 57.5147 877.912 55.04C875.437 52.48 872.408 51.2 868.824 51.2H816.6C811.907 51.2 807.597 50.048 803.672 47.744C799.832 45.44 796.76 42.368 794.456 38.528C792.152 34.6027 791 30.2933 791 25.6C791 20.9067 792.152 16.64 794.456 12.8C796.76 8.87467 799.832 5.76 803.672 3.456C807.597 1.152 811.907 0 816.6 0H888.024V12.8H816.6C813.101 12.8 810.072 14.08 807.512 16.64C805.037 19.1147 803.8 22.1013 803.8 25.6C803.8 29.0987 805.037 32.128 807.512 34.688C810.072 37.1627 813.101 38.4 816.6 38.4H868.824C873.603 38.4 877.912 39.552 881.752 41.856C885.592 44.16 888.664 47.2747 890.968 51.2C893.272 55.04 894.424 59.3067 894.424 64Z" fill="white"/>
<path d="M697.144 51.2H634.552V38.4H697.144V51.2Z" fill="white"/>
<path fill-rule="evenodd" clip-rule="evenodd" d="M811.276 64C811.276 68.6933 810.124 73.0027 807.82 76.928C805.516 80.768 802.444 83.84 798.604 86.144C794.764 88.448 790.455 89.6 785.676 89.6H615.352V0H708.024V12.8H628.152V76.8H785.676C789.26 76.8 792.289 75.5627 794.764 73.088C797.239 70.528 798.476 67.4987 798.476 64C798.476 60.5013 797.239 57.5147 794.764 55.04C792.289 52.48 789.26 51.2 785.676 51.2H733.452C728.759 51.2 724.449 50.048 720.524 47.744C716.684 45.44 713.612 42.368 711.308 38.528C709.004 34.6027 707.852 30.2933 707.852 25.6C707.852 20.9067 709.004 16.64 711.308 12.8C713.612 8.87467 716.684 5.76 720.524 3.456C724.449 1.152 728.759 0 733.452 0H801.657L801.647 0.0057373L801.631 0.0155029L801.614 0.0262451C797.201 2.67407 793.661 6.26463 791.026 10.7421L790.777 11.1649C790.467 11.703 790.176 12.248 789.904 12.7997L733.452 12.8C729.953 12.8 726.924 14.08 724.364 16.64C721.889 19.1147 720.652 22.1013 720.652 25.6C720.652 29.0987 721.889 32.128 724.364 34.688C726.924 37.1627 729.953 38.4 733.452 38.4H785.676C787.172 38.4 788.621 38.5128 790.025 38.7385C790.329 39.3509 790.656 39.9556 791.007 40.5526L791.026 40.5858C793.668 44.9887 797.211 48.5319 801.614 51.1737L801.647 51.1932C804.108 52.6377 806.701 53.6903 809.413 54.3532C810.655 57.3388 811.276 60.5544 811.276 64Z" fill="white"/>
</svg>
